<svg xmlns="http://www.w3.org/2000/svg" width="450" height="233" viewBox="0 0 450 233" role="img" aria-label="Thanh Phan's GitHub stats"><rect x="0.5" y="0.5" width="449" height="232" rx="10" fill="#0d1117" stroke="#30363d"/><text x="25" y="35" font-family="'Segoe UI', Ubuntu, 'Helvetica Neue', Sans-Serif" font-size="18" font-weight="600" fill="#8fd11e">Thanh Phan's GitHub Stats</text><rect x="25" y="64" width="6" height="6" rx="1" transform="rotate(45 28 67)" fill="#76B900"/><text x="41" y="73" font-family="'Segoe UI', Ubuntu, 'Helvetica Neue', Sans-Serif" font-size="14" fill="#e6edf3">Total Stars Earned</text><text x="425" y="73" text-anchor="end" font-family="'Segoe UI', Ubuntu, 'Helvetica Neue', Sans-Serif" font-size="14" font-weight="600" fill="#8fd11e">51</text><rect x="25" y="90" width="6" height="6" rx="1" transform="rotate(45 28 93)" fill="#76B900"/><text x="41" y="99" font-family="'Segoe UI', Ubuntu, 'Helvetica Neue', Sans-Serif" font-size="14" fill="#e6edf3">Total Commits (last year)</text><text x="425" y="99" text-anchor="end" font-family="'Segoe UI', Ubuntu, 'Helvetica Neue', Sans-Serif" font-size="14" font-weight="600" fill="#8fd11e">197</text><rect x="25" y="116" width="6" height="6" rx="1" transform="rotate(45 28 119)" fill="#76B900"/><text x="41" y="125" font-family="'Segoe UI', Ubuntu, 'Helvetica Neue', Sans-Serif" font-size="14" fill="#e6edf3">Total PRs</text><text x="425" y="125" text-anchor="end" font-family="'Segoe UI', Ubuntu, 'Helvetica Neue', Sans-Serif" font-size="14" font-weight="600" fill="#8fd11e">63</text><rect x="25" y="142" width="6" height="6" rx="1" transform="rotate(45 28 145)" fill="#76B900"/><text x="41" y="151" font-family="'Segoe UI', Ubuntu, 'Helvetica Neue', Sans-Serif" font-size="14" fill="#e6edf3">Total Issues</text><text x="425" y="151" text-anchor="end" font-family="'Segoe UI', Ubuntu, 'Helvetica Neue', Sans-Serif" font-size="14" font-weight="600" fill="#8fd11e">2</text><rect x="25" y="168" width="6" height="6" rx="1" transform="rotate(45 28 171)" fill="#76B900"/><text x="41" y="177" font-family="'Segoe UI', Ubuntu, 'Helvetica Neue', Sans-Serif" font-size="14" fill="#e6edf3">Contributed to</text><text x="425" y="177" text-anchor="end" font-family="'Segoe UI', Ubuntu, 'Helvetica Neue', Sans-Serif" font-size="14" font-weight="600" fill="#8fd11e">3</text><rect x="25" y="194" width="6" height="6" rx="1" transform="rotate(45 28 197)" fill="#76B900"/><text x="41" y="203" font-family="'Segoe UI', Ubuntu, 'Helvetica Neue', Sans-Serif" font-size="14" fill="#e6edf3">Followers</text><text x="425" y="203" text-anchor="end" font-family="'Segoe UI', Ubuntu, 'Helvetica Neue', Sans-Serif" font-size="14" font-weight="600" fill="#8fd11e">8</text></svg>
