<svg xmlns="http://www.w3.org/2000/svg" width="450" height="166" viewBox="0 0 450 166" role="img" aria-label="Most used languages"><rect x="0.5" y="0.5" width="449" height="165" rx="10" fill="#ffffff" stroke="#d0d7de"/><text x="25" y="35" font-family="'Segoe UI', Ubuntu, 'Helvetica Neue', Sans-Serif" font-size="18" font-weight="600" fill="#467100">Most Used Languages</text><rect x="25" y="55" width="400" height="10" rx="5" fill="#eaeef2"/><defs><clipPath id="bar"><rect x="25" y="55" width="400" height="10" rx="5"/></clipPath></defs><g clip-path="url(#bar)"><rect x="25.00" y="55" width="213.42" height="10" fill="#DA5B0B"/><rect x="240.42" y="55" width="85.56" height="10" fill="#e34c26"/><rect x="327.99" y="55" width="37.47" height="10" fill="#178600"/><rect x="367.45" y="55" width="27.09" height="10" fill="#3572A5"/><rect x="396.54" y="55" width="16.87" height="10" fill="#3178c6"/><rect x="415.41" y="55" width="7.59" height="10" fill="#f1e05a"/></g><circle cx="30.0" cy="78" r="5" fill="#DA5B0B"/><text x="43.0" y="82" font-family="'Segoe UI', Ubuntu, 'Helvetica Neue', Sans-Serif" font-size="13" fill="#1f2328">Jupyter Notebook</text><text x="211.0" y="82" text-anchor="end" font-family="'Segoe UI', Ubuntu, 'Helvetica Neue', Sans-Serif" font-size="13" fill="#57606a">53.9%</text><circle cx="230.0" cy="78" r="5" fill="#e34c26"/><text x="243.0" y="82" font-family="'Segoe UI', Ubuntu, 'Helvetica Neue', Sans-Serif" font-size="13" fill="#1f2328">HTML</text><text x="411.0" y="82" text-anchor="end" font-family="'Segoe UI', Ubuntu, 'Helvetica Neue', Sans-Serif" font-size="13" fill="#57606a">21.9%</text><circle cx="30.0" cy="102" r="5" fill="#178600"/><text x="43.0" y="106" font-family="'Segoe UI', Ubuntu, 'Helvetica Neue', Sans-Serif" font-size="13" fill="#1f2328">C#</text><text x="211.0" y="106" text-anchor="end" font-family="'Segoe UI', Ubuntu, 'Helvetica Neue', Sans-Serif" font-size="13" fill="#57606a">9.9%</text><circle cx="230.0" cy="102" r="5" fill="#3572A5"/><text x="243.0" y="106" font-family="'Segoe UI', Ubuntu, 'Helvetica Neue', Sans-Serif" font-size="13" fill="#1f2328">Python</text><text x="411.0" y="106" text-anchor="end" font-family="'Segoe UI', Ubuntu, 'Helvetica Neue', Sans-Serif" font-size="13" fill="#57606a">7.3%</text><circle cx="30.0" cy="126" r="5" fill="#3178c6"/><text x="43.0" y="130" font-family="'Segoe UI', Ubuntu, 'Helvetica Neue', Sans-Serif" font-size="13" fill="#1f2328">TypeScript</text><text x="211.0" y="130" text-anchor="end" font-family="'Segoe UI', Ubuntu, 'Helvetica Neue', Sans-Serif" font-size="13" fill="#57606a">4.7%</text><circle cx="230.0" cy="126" r="5" fill="#f1e05a"/><text x="243.0" y="130" font-family="'Segoe UI', Ubuntu, 'Helvetica Neue', Sans-Serif" font-size="13" fill="#1f2328">JavaScript</text><text x="411.0" y="130" text-anchor="end" font-family="'Segoe UI', Ubuntu, 'Helvetica Neue', Sans-Serif" font-size="13" fill="#57606a">2.4%</text></svg>
