<svg xmlns="http://www.w3.org/2000/svg" width="450" height="166" viewBox="0 0 450 166" role="img" aria-label="Most used languages"><rect x="0.5" y="0.5" width="449" height="165" rx="10" fill="#0d1117" stroke="#30363d"/><text x="25" y="35" font-family="'Segoe UI', Ubuntu, 'Helvetica Neue', Sans-Serif" font-size="18" font-weight="600" fill="#8fd11e">Most Used Languages</text><rect x="25" y="55" width="400" height="10" rx="5" fill="#21262d"/><defs><clipPath id="bar"><rect x="25" y="55" width="400" height="10" rx="5"/></clipPath></defs><g clip-path="url(#bar)"><rect x="25.00" y="55" width="221.32" height="10" fill="#DA5B0B"/><rect x="248.32" y="55" width="91.16" height="10" fill="#e34c26"/><rect x="341.48" y="55" width="40.42" height="10" fill="#178600"/><rect x="383.89" y="55" width="14.16" height="10" fill="#3572A5"/><rect x="400.05" y="55" width="12.75" height="10" fill="#3178c6"/><rect x="414.81" y="55" width="8.19" height="10" fill="#f1e05a"/></g><circle cx="30.0" cy="78" r="5" fill="#DA5B0B"/><text x="43.0" y="82" font-family="'Segoe UI', Ubuntu, 'Helvetica Neue', Sans-Serif" font-size="13" fill="#e6edf3">Jupyter Notebook</text><text x="211.0" y="82" text-anchor="end" font-family="'Segoe UI', Ubuntu, 'Helvetica Neue', Sans-Serif" font-size="13" fill="#9aa4af">55.8%</text><circle cx="230.0" cy="78" r="5" fill="#e34c26"/><text x="243.0" y="82" font-family="'Segoe UI', Ubuntu, 'Helvetica Neue', Sans-Serif" font-size="13" fill="#e6edf3">HTML</text><text x="411.0" y="82" text-anchor="end" font-family="'Segoe UI', Ubuntu, 'Helvetica Neue', Sans-Serif" font-size="13" fill="#9aa4af">23.3%</text><circle cx="30.0" cy="102" r="5" fill="#178600"/><text x="43.0" y="106" font-family="'Segoe UI', Ubuntu, 'Helvetica Neue', Sans-Serif" font-size="13" fill="#e6edf3">C#</text><text x="211.0" y="106" text-anchor="end" font-family="'Segoe UI', Ubuntu, 'Helvetica Neue', Sans-Serif" font-size="13" fill="#9aa4af">10.6%</text><circle cx="230.0" cy="102" r="5" fill="#3572A5"/><text x="243.0" y="106" font-family="'Segoe UI', Ubuntu, 'Helvetica Neue', Sans-Serif" font-size="13" fill="#e6edf3">Python</text><text x="411.0" y="106" text-anchor="end" font-family="'Segoe UI', Ubuntu, 'Helvetica Neue', Sans-Serif" font-size="13" fill="#9aa4af">4%</text><circle cx="30.0" cy="126" r="5" fill="#3178c6"/><text x="43.0" y="130" font-family="'Segoe UI', Ubuntu, 'Helvetica Neue', Sans-Serif" font-size="13" fill="#e6edf3">TypeScript</text><text x="211.0" y="130" text-anchor="end" font-family="'Segoe UI', Ubuntu, 'Helvetica Neue', Sans-Serif" font-size="13" fill="#9aa4af">3.7%</text><circle cx="230.0" cy="126" r="5" fill="#f1e05a"/><text x="243.0" y="130" font-family="'Segoe UI', Ubuntu, 'Helvetica Neue', Sans-Serif" font-size="13" fill="#e6edf3">JavaScript</text><text x="411.0" y="130" text-anchor="end" font-family="'Segoe UI', Ubuntu, 'Helvetica Neue', Sans-Serif" font-size="13" fill="#9aa4af">2.5%</text></svg>
